<svg height="512" viewBox="0 0 128 128" width="512" xmlns="http://www.w3.org/2000/svg"><g><path d="m12.932 79.975c-7-30.25 13-51.5 38-51.5l13.833 50.833z" fill="#62e0da"/><rect fill="#3d6269" height="57.458" rx="3" transform="matrix(.965 -.263 .263 .965 -11.538 16.836)" width="6" x="54.222" y="22.858"/><path d="m115.5 75.58v21.92a24.006 24.006 0 0 1 -24 24h-55a24.006 24.006 0 0 1 -24-24v-21.92z" fill="#62e0da"/><path d="m102.649 113.372a1.75 1.75 0 0 1 -1.087-3.123 16.4 16.4 0 0 0 3.292-3.5 1.75 1.75 0 0 1 2.873 2 19.927 19.927 0 0 1 -3.993 4.251 1.746 1.746 0 0 1 -1.085.372z" fill="#50c1b4"/><rect fill="#3d6269" height="6" rx="3" width="115" x="6.5" y="72.026"/><circle cx="64" cy="89.767" fill="#50c1b4" r="6"/><rect fill="#537980" height="6" rx="3" transform="matrix(.209 -.978 .978 .209 7.198 111.097)" width="79.072" x="32.714" y="48.101"/><circle cx="80.5" cy="12.5" fill="#50c1b4" r="6"/></g></svg>